<?xml version="1.0" encoding="UTF-8" standalone="no"?><svg xmlns="http://www.w3.org/2000/svg" xmlns:xlink="http://www.w3.org/1999/xlink" data-name="1" fill="#da4672" height="90" preserveAspectRatio="xMidYMid meet" version="1" viewBox="5.0 5.0 90.0 90.0" width="90" zoomAndPan="magnify"><g id="change1_1"><path d="M50,5A45,45,0,1,1,5,50,45,45,0,0,1,50,5ZM72.8453,48.3008v-.0453a2.2518,2.2518,0,0,0-2.2524-2.2523H68.2952q.0632-.6012.0953-1.2008.0309-.6321.0317-1.2643a5.2657,5.2657,0,0,0-.0317-.569v-.6h2.2024a2.2518,2.2518,0,0,0,2.2524-2.2523v-.0452a2.2518,2.2518,0,0,0-2.2524-2.2524H67.727A14.4235,14.4235,0,0,0,61.66,29.2238q-4.55-3.0333-12.1016-3.0333-4.4059,0-8.811.0008A7.9352,7.9352,0,0,0,32.81,34.127v3.6921H29.4294a2.275,2.275,0,1,0,0,4.55H32.81v3.6342H29.4294a2.275,2.275,0,1,0,0,4.55H32.81V68.5961a5.2139,5.2139,0,0,0,10.4278,0V61.7389h5.877a26.8369,26.8369,0,0,0,6.2563-.6953,19.4314,19.4314,0,0,0,5.2461-2.1174,15.7714,15.7714,0,0,0,4.0444-3.5071,15.5083,15.5083,0,0,0,2.654-4.8659h3.277A2.2523,2.2523,0,0,0,72.8453,48.3008Z" fill="inherit"/></g><g id="change1_2"><path d="M57.9,42.8429q.0309.3475.031.727,0,.7262-.031,1.39a12.8587,12.8587,0,0,1-.127,1.2952H43.1746v-4.14q7.3464.0012,14.6936,0C57.8889,42.3476,57.9,42.59,57.9,42.8429Z" fill="inherit"/></g><g id="change1_3"><path d="M56.6992,37.8191H43.1746v-4.14q1.1535.0012,2.3071,0,1.4846,0,3.1278.1262a14.2728,14.2728,0,0,1,3.1913.5373,10.1182,10.1182,0,0,1,2.8444,1.2325A5.8678,5.8678,0,0,1,56.6992,37.8191Z" fill="inherit"/></g><g id="change1_4"><path d="M43.1746,50.5532H56.3825a7.1819,7.1819,0,0,1-1.9587,2.2119,8.881,8.881,0,0,1-2.5278,1.2635,14.661,14.661,0,0,1-3.0333.5373q-1.6119.1261-3.381.1262-1.1535.001-2.3071,0Z" fill="inherit"/></g></svg>