<?xml version="1.0" encoding="UTF-8" standalone="no"?><svg xmlns="http://www.w3.org/2000/svg" xmlns:xlink="http://www.w3.org/1999/xlink" fill="#da4672" height="51" preserveAspectRatio="xMidYMid meet" version="1" viewBox="2.0 11.0 61.0 51.0" width="61" zoomAndPan="magnify"><g id="change1_1"><path d="M37,35.7c0.3,0.2,0.7,0.4,1,0.6c0.1-0.7,0-1.4-0.4-2c-0.5-1-1.7-1.8-2.8-2.1c-0.7-0.2-1.3-0.1-1.8,0.2 c-0.3,0.2-0.6,0.4-0.7,0.7C34.1,33.1,35.9,34.1,37,35.7z" fill="inherit"/></g><g id="change1_2"><path d="M41.8,38.9l1.1,9.1c2.1-0.1,5.1-0.5,5.1-4c0-3.3-2.7-6-6-6c-0.3,0-0.6,0-0.9,0.1C41.5,38.2,41.7,38.5,41.8,38.9z" fill="inherit"/></g><g id="change1_3"><path d="M45,59c0-1.4-1-2.7-2.4-2.9c-0.4-0.1-0.7-0.4-0.8-0.9L41.3,51c0,0,0,0,0,0l-0.4-3c0,0,0,0,0,0l-1-8h-0.7 c-0.4,0-0.7-0.2-0.9-0.5c0-0.1-0.1-0.1-0.1-0.1c-0.3-0.5-0.7-0.9-1.2-1.3c-0.3-0.3-0.7-0.5-1.1-0.7c-0.2-0.1-0.4-0.2-0.5-0.4 c-0.8-1.3-2.1-2-3.6-2c0,0,0,0,0,0c-0.4,0-0.8,0.1-1.2,0.3c-0.3-0.1-0.6-0.2-0.8-0.2C29.4,35,29,35,28.6,35c-0.3,0-0.6-0.1-0.8-0.3 C26.8,33.6,25.4,33,24,33c-0.6,0-1.2,0.1-1.7,0.3c-0.2,0.1-0.4,0.2-0.6,0.3c-0.1,0-0.1,0.1-0.2,0.1c-0.2,0.1-0.5,0.3-0.7,0.5 C20.1,33.4,19.1,33,18,33c-1.9,0-3.4,1.3-3.9,3c-2.5-0.1-4.5,1.7-5,4H8c-0.5,0-0.9,0.4-1,0.9L5.1,56H5c-1.7,0-3,1.3-3,3s1.3,3,3,3 h37C43.7,62,45,60.7,45,59z M7.1,56l1.8-14h29.2l1.8,14H7.1z" fill="inherit"/></g><g id="change1_4"><path d="M61.2,53.3c-0.7-0.4-1-1.3-0.9-2c1.8-10.1,1.8-20.3,0.1-30.5L60,18.1l0.6-1.8c0.4-1.2,0.2-2.5-0.5-3.6S58.1,11,56.8,11h-30 c-1.4,0-2.7,0.7-3.4,1.9c-0.7,1.2-0.8,2.6-0.2,3.9l0.7,1.4l-0.4,2.6c-0.6,3.4-0.9,6.9-1.1,10.4c0.5-0.1,1-0.2,1.6-0.2 c1.8,0,3.6,0.7,4.9,2c0.4,0,0.7,0,1.1,0.1c2-4.8,6.7-8.1,12-8.1c7.2,0,13,5.8,13,13c0,6.7-5.2,12.3-11.7,12.9l0.4,3.4 c2,0.7,3.3,2.6,3.3,4.7c0,1.1-0.4,2.2-1,3h13c2.2,0,4-1.8,4-4v-1.3C63,55.3,62.3,54,61.2,53.3z M58.7,15.6L58.3,17H57v-1 c0-0.6-0.4-1-1-1s-1,0.4-1,1v1h-2v-1c0-0.6-0.4-1-1-1s-1,0.4-1,1v1h-2v-1c0-0.6-0.4-1-1-1s-1,0.4-1,1v1h-2v-1c0-0.6-0.4-1-1-1 s-1,0.4-1,1v1h-2v-1c0-0.6-0.4-1-1-1s-1,0.4-1,1v1h-2v-1c0-0.6-0.4-1-1-1s-1,0.4-1,1v1h-2v-1c0-0.6-0.4-1-1-1s-1,0.4-1,1v1h-2v-1 c0-0.6-0.4-1-1-1s-1,0.4-1,1v1h-1.4l-0.6-1.1c-0.3-0.6-0.3-1.3,0.1-1.9c0.4-0.6,1-0.9,1.7-0.9h30c0.7,0,1.2,0.3,1.6,0.8 C58.8,14.4,58.9,15,58.7,15.6z" fill="inherit"/></g><g id="change1_5"><path d="M42,36c1.7,0,3-1.3,3-3c0-1.6-1.2-4-3-4s-3,2.4-3,4C39,34.7,40.3,36,42,36z" fill="inherit"/></g><g id="change1_6"><path d="M47.3,38.3c0.5,0.3,1,0.4,1.5,0.4c0.3,0,0.5,0,0.8-0.1c0.8-0.2,1.4-0.7,1.8-1.4c0.4-0.6,0.6-1.6,0.6-2.5 c0-1.2-0.4-2.1-1.2-2.5c-0.8-0.4-1.7-0.4-2.8,0.2c-0.8,0.4-1.5,1.1-1.8,1.7C45.4,35.7,45.9,37.5,47.3,38.3z" fill="inherit"/></g><g id="change1_7"><path d="M32,47c0-1.7-1.3-3-3-3c-1.3,0-2.4,0.8-2.8,2h-4.3c-0.4-1.2-1.5-2-2.8-2c-1.7,0-3,1.3-3,3c0,0.5,0.1,1,0.4,1.4 c0.2,0.4,0.2,0.8,0,1.2C16.1,50,16,50.5,16,51c0,1.7,1.3,3,3,3c1.3,0,2.4-0.8,2.8-2h4.3c0.4,1.2,1.5,2,2.8,2c1.7,0,3-1.3,3-3 c0-0.5-0.1-1-0.4-1.4c-0.2-0.4-0.2-0.8,0-1.2C31.9,48,32,47.5,32,47z" fill="inherit"/></g></svg>