<?xml version="1.0" encoding="UTF-8" standalone="no"?><svg xmlns="http://www.w3.org/2000/svg" xmlns:xlink="http://www.w3.org/1999/xlink" fill="#da4672" height="261.3" preserveAspectRatio="xMidYMid meet" version="1" viewBox="-30.7 -30.7 261.3 261.3" width="261.3" zoomAndPan="magnify"><g><g id="change1_1"><circle cx="100" cy="100" r="100" transform="rotate(-67.5 99.998 99.998)"/></g><g><g id="change2_1"><path d="M128.48,52.88c0,15.73-12.75,28.48-28.48,28.48S71.52,68.61,71.52,52.88c0-15.73,12.75-28.48,28.48-28.48 S128.48,37.14,128.48,52.88z" fill="#ffffff"/></g><g id="change2_2"><path d="M100,91.1L100,91.1c-29.19,0-52.85,23.66-52.85,52.85l0,0c0,7.66,6.21,13.87,13.87,13.87h77.96 c7.66,0,13.87-6.21,13.87-13.87l0,0C152.85,114.76,129.19,91.1,100,91.1z" fill="#ffffff"/></g></g></g></svg>